<?xml version="1.0" encoding="UTF-8"?><svg xmlns="http://www.w3.org/2000/svg" width="1026mm" height="1342mm" xmlns:xlink="http://www.w3.org/1999/xlink" viewBox="0 0 2908.35 3804.09"><defs><style>.cls-1{fill:#ffcf33;}.cls-2,.cls-3,.cls-4,.cls-5,.cls-6,.cls-7,.cls-8,.cls-9,.cls-10,.cls-11,.cls-12,.cls-13{stroke-linejoin:round;}.cls-2,.cls-14,.cls-4,.cls-5,.cls-7,.cls-15,.cls-16,.cls-17,.cls-18{stroke:#fff;}.cls-2,.cls-14,.cls-5,.cls-16,.cls-19{fill:#549e84;}.cls-2,.cls-4,.cls-5,.cls-9,.cls-20,.cls-11,.cls-16,.cls-17,.cls-18{stroke-width:9px;}.cls-3,.cls-14,.cls-8,.cls-10,.cls-15,.cls-12,.cls-13{stroke-width:8px;}.cls-3,.cls-21,.cls-4,.cls-6,.cls-7,.cls-9,.cls-20,.cls-10,.cls-11,.cls-17,.cls-13{fill:none;}.cls-3,.cls-9,.cls-20,.cls-10,.cls-11{stroke:#f9ed32;}.cls-3,.cls-20,.cls-11{stroke-dasharray:50;}.cls-22,.cls-18{fill:#231f20;}.cls-14,.cls-20,.cls-15,.cls-16,.cls-17,.cls-18{stroke-miterlimit:10;}.cls-4,.cls-5,.cls-6,.cls-17{stroke-dasharray:22;}.cls-6{stroke:#ed1c24;}.cls-6,.cls-7{stroke-width:35px;}.cls-8,.cls-15{fill:url(#New_Pattern_2);}.cls-8,.cls-12,.cls-13{stroke:#f7ec13;}.cls-12{fill:url(#New_Pattern_3);}</style><pattern id="New_Pattern_2" x="0" y="0" width="600.51" height="498.99" patternUnits="userSpaceOnUse" viewBox="0 0 600.51 498.99"><rect class="cls-21" width="600.51" height="498.99"/><rect class="cls-1" x="46.2" y="494.34" width="46.2" height="176.45"/><rect class="cls-1" x="138.6" y="494.34" width="46.2" height="176.45"/><rect class="cls-1" x="231.07" y="494.34" width="46.2" height="176.45"/><rect class="cls-1" x="323.47" y="494.34" width="46.2" height="176.45"/><rect class="cls-1" x="415.88" y="494.34" width="46.2" height="176.45"/><rect class="cls-1" x="508.28" y="494.34" width="46.2" height="176.45"/><rect class="cls-22" x="92.4" y="494.34" width="46.2" height="176.45"/><rect class="cls-22" x="184.8" y="494.34" width="46.2" height="176.45"/><rect class="cls-22" x="277.27" y="494.34" width="46.2" height="176.45"/><rect class="cls-22" x="369.67" y="494.34" width="46.2" height="176.45"/><rect class="cls-22" x="462.08" y="494.34" width="46.2" height="176.45"/><rect class="cls-22" x="554.31" y="493.51" width="46.2" height="176.45"/><rect class="cls-22" x="0" y="494.34" width="46.2" height="176.45"/><path class="cls-14" d="M552.78,432.3H29.98c-14.99,0-22.5-18.13-11.9-28.73l55.77-55.77c3.16-3.16,7.44-4.93,11.9-4.93h411.26c4.46,0,8.74,1.77,11.9,4.93l55.77,55.77c10.6,10.6,3.09,28.73-11.9,28.73Z"/><rect class="cls-1" x="46.2" y="328.01" width="46.2" height="176.45"/><rect class="cls-1" x="138.6" y="328.01" width="46.2" height="176.45"/><rect class="cls-1" x="231.07" y="328.01" width="46.2" height="176.45"/><rect class="cls-1" x="323.47" y="328.01" width="46.2" height="176.45"/><rect class="cls-1" x="415.88" y="328.01" width="46.2" height="176.45"/><rect class="cls-1" x="508.28" y="328.01" width="46.2" height="176.45"/><rect class="cls-22" x="92.4" y="328.01" width="46.2" height="176.45"/><rect class="cls-22" x="184.8" y="328.01" width="46.2" height="176.45"/><rect class="cls-22" x="277.27" y="328.01" width="46.2" height="176.45"/><rect class="cls-22" x="369.67" y="328.01" width="46.2" height="176.45"/><rect class="cls-22" x="462.08" y="328.01" width="46.2" height="176.45"/><rect class="cls-22" x="554.31" y="327.18" width="46.2" height="176.45"/><rect class="cls-22" x="0" y="328.01" width="46.2" height="176.45"/><path class="cls-14" d="M552.78,265.97H29.98c-14.99,0-22.5-18.13-11.9-28.73l55.77-55.77c3.16-3.16,7.44-4.93,11.9-4.93h411.26c4.46,0,8.74,1.77,11.9,4.93l55.77,55.77c10.6,10.6,3.09,28.73-11.9,28.73Z"/><rect class="cls-1" x="46.2" y="161.68" width="46.2" height="176.45"/><rect class="cls-1" x="138.6" y="161.68" width="46.2" height="176.45"/><rect class="cls-1" x="231.07" y="161.68" width="46.2" height="176.45"/><rect class="cls-1" x="323.47" y="161.68" width="46.2" height="176.45"/><rect class="cls-1" x="415.88" y="161.68" width="46.2" height="176.45"/><rect class="cls-1" x="508.28" y="161.68" width="46.2" height="176.45"/><rect class="cls-22" x="92.4" y="161.68" width="46.2" height="176.45"/><rect class="cls-22" x="184.8" y="161.68" width="46.2" height="176.45"/><rect class="cls-22" x="277.27" y="161.68" width="46.2" height="176.45"/><rect class="cls-22" x="369.67" y="161.68" width="46.2" height="176.45"/><rect class="cls-22" x="462.08" y="161.68" width="46.2" height="176.45"/><rect class="cls-22" x="554.31" y="160.86" width="46.2" height="176.45"/><rect class="cls-22" x="0" y="161.68" width="46.2" height="176.45"/><path class="cls-14" d="M552.78,99.64H29.98c-14.99,0-22.5-18.13-11.9-28.73L73.85,15.14c3.16-3.16,7.44-4.93,11.9-4.93h411.26c4.46,0,8.74,1.77,11.9,4.93l55.77,55.77c10.6,10.6,3.09,28.73-11.9,28.73Z"/><rect class="cls-1" x="46.2" y="-4.65" width="46.2" height="176.45"/><rect class="cls-1" x="138.6" y="-4.65" width="46.2" height="176.45"/><rect class="cls-1" x="231.07" y="-4.65" width="46.2" height="176.45"/><rect class="cls-1" x="323.47" y="-4.65" width="46.2" height="176.45"/><rect class="cls-1" x="415.88" y="-4.65" width="46.2" height="176.45"/><rect class="cls-1" x="508.28" y="-4.65" width="46.2" height="176.45"/><rect class="cls-22" x="92.4" y="-4.65" width="46.2" height="176.45"/><rect class="cls-22" x="184.8" y="-4.65" width="46.2" height="176.45"/><rect class="cls-22" x="277.27" y="-4.65" width="46.2" height="176.45"/><rect class="cls-22" x="369.67" y="-4.65" width="46.2" height="176.45"/><rect class="cls-22" x="462.08" y="-4.65" width="46.2" height="176.45"/><rect class="cls-22" x="554.31" y="-5.47" width="46.2" height="176.45"/><rect class="cls-22" x="0" y="-4.65" width="46.2" height="176.45"/><rect class="cls-1" x="46.2" y="-170.98" width="46.2" height="176.45"/><rect class="cls-1" x="138.6" y="-170.98" width="46.2" height="176.45"/><rect class="cls-1" x="231.07" y="-170.98" width="46.2" height="176.45"/><rect class="cls-1" x="323.47" y="-170.98" width="46.2" height="176.45"/><rect class="cls-1" x="415.88" y="-170.98" width="46.2" height="176.45"/><rect class="cls-1" x="508.28" y="-170.98" width="46.2" height="176.45"/><rect class="cls-22" x="92.4" y="-170.98" width="46.2" height="176.45"/><rect class="cls-22" x="184.8" y="-170.98" width="46.2" height="176.45"/><rect class="cls-22" x="277.27" y="-170.98" width="46.2" height="176.45"/><rect class="cls-22" x="369.67" y="-170.98" width="46.2" height="176.45"/><rect class="cls-22" x="462.08" y="-170.98" width="46.2" height="176.45"/><rect class="cls-22" x="554.31" y="-171.8" width="46.2" height="176.45"/><rect class="cls-22" x="0" y="-170.98" width="46.2" height="176.45"/></pattern><pattern id="New_Pattern_3" x="0" y="0" width="641.33" height="554.48" patternUnits="userSpaceOnUse" viewBox="0 0 641.33 554.48"><rect class="cls-21" width="641.33" height="554.48"/><path class="cls-14" d="M574.69,316.73H51.89c-14.99,0-22.5-18.13-11.9-28.73l55.77-55.77c3.16-3.16,7.44-4.93,11.9-4.93h411.26c4.46,0,8.74,1.77,11.9,4.93l55.77,55.77c10.6,10.6,3.09,28.73-11.9,28.73Z"/><polygon class="cls-1" points="0 92.4 0 46.2 641.33 46.2 641.33 92.4 0 92.4"/><polygon class="cls-1" points="0 184.8 0 138.6 641.33 138.6 641.33 184.8 0 184.8"/><polygon class="cls-1" points="0 277.27 0 231.07 641.33 231.07 641.33 277.27 0 277.27"/><polygon class="cls-1" points="0 369.67 0 323.47 641.33 323.47 641.33 369.67 0 369.67"/><polygon class="cls-1" points="0 462.08 0 415.87 641.33 415.87 641.33 462.08 0 462.08"/><polygon class="cls-1" points="0 554.48 0 508.28 641.33 508.28 641.33 554.48 0 554.48"/><polygon class="cls-22" points="0 138.6 0 92.4 641.33 92.4 641.33 138.6 0 138.6"/><polygon class="cls-22" points="0 231 0 184.8 641.33 184.8 641.33 231 0 231"/><polygon class="cls-22" points="0 323.47 0 277.27 641.33 277.27 641.33 323.47 0 323.47"/><polygon class="cls-22" points="0 415.87 0 369.67 641.33 369.67 641.33 415.87 0 415.87"/><polygon class="cls-22" points="0 508.28 0 462.08 641.33 462.08 641.33 508.28 0 508.28"/><polygon class="cls-22" points="0 46.2 0 0 641.33 0 641.33 46.2 0 46.2"/></pattern></defs><g id="TrackLayout"><g id="BG"><rect class="cls-19" width="2908.35" height="3807.25"/></g><path id="Road" class="cls-18" d="M2397.03,2268.11v-684.61c0-82.6,57.91-153.89,138.76-170.81l120.54-25.23c80.85-16.92,138.76-88.21,138.76-170.81V281.01c0-80.16-64.98-145.13-145.13-145.13h-599.42c-31.54,0-60.87-16.23-77.62-42.96l-7.56-12.06c-16.75-26.73-46.07-42.96-77.62-42.96h-802.3c-31.45,0-60.71,16.14-77.48,42.74l-7.88,12.5c-16.77,26.61-46.03,42.74-77.48,42.74H249.17c-80.16,0-145.13,64.98-145.13,145.13v3206.09c0,80.16,64.98,145.13,145.13,145.13h673.44c31.5,0,60.79,16.19,77.55,42.85l7.72,12.28c16.76,26.67,46.05,42.85,77.55,42.85h802.29c31.5,0,60.79-16.19,77.55-42.85l7.72-12.28c16.76-26.67,46.05-42.85,77.55-42.85h599.42c80.16,0,145.13-64.98,145.13-145.13v-852.14c0-82.6-57.91-153.89-138.76-170.81l-120.54-25.23c-80.85-16.92-138.76-88.21-138.76-170.81Z"/><path class="cls-15" d="M1748.17,305.26h-522.8c-14.99,0-22.5-9.25-11.9-14.66l55.77-28.46c3.16-1.61,7.44-2.52,11.9-2.52h411.26c4.46,0,8.74.9,11.9,2.52l55.77,28.46c10.6,5.41,3.09,14.66-11.9,14.66Z"/><path class="cls-15" d="M1225.18,3462.75h522.8c14.99,0,22.5,9.27,11.9,14.69l-55.77,28.51c-3.16,1.62-7.44,2.52-11.9,2.52h-411.26c-4.46,0-8.74-.9-11.9-2.52l-55.77-28.51c-10.6-5.42-3.09-14.69,11.9-14.69Z"/><path class="cls-2" d="M443.71,730.67c-2.05,26.73-38.75,32.61-49.3,7.97-18.77-43.86-31.76-93.14-24.77-137.9,18.34-117.4,153.77-96.05,283.8-88.17,136.2,8.25,588.15,35.08,588.15,35.08,0,0-600.46,14.56-727.95,76.01-49.01,23.62-66.71,65.01-69.93,107Z"/><path class="cls-2" d="M1904.04,537.14s247.64-41.21,443.46-23.32c195.82,17.89,228.55,143.53,213.71,272.64-18.34,159.59-36.19,203.88-58.01,292.04-11.01,44.47-74.43,44.52-85.18,0-21.38-88.49-3.33-328.03-115.99-398.93-211.98-133.39-397.99-142.42-397.99-142.42Z"/><path class="cls-2" d="M928.89,1106.02c-29.93,1.53-58.47-12.71-75.41-37.44-39.64-57.88-146.05-238.2,41.1-271.03,128.64-22.56,252.72-16.65,334.9-7.57,43.64,4.82,77.2,41.46,77.29,85.37,0,.82.01,1.65.03,2.48.64,32.05-15.97,61.95-43.9,77.69-78.85,44.44-224.03,124.19-277.51,139.89-22.66,6.65-41.23,9.83-56.5,10.61Z"/><path class="cls-2" d="M1233.69,1294.16c13.74-8.53,156.91-95.18,271.72-73.28,21.93,4.18,34.74,27.16,26.74,48-19.71,51.38-18.25,242.15-24.41,343.95-3.06,50.47-66.37,71.04-98.37,31.89-88.53-108.33-212.46-322.74-177.65-349.24.63-.48,1.3-.9,1.97-1.31Z"/><path class="cls-2" d="M1956.77,775.69c-130.92-8.8-262.32,25.68-310.01,61.45s-53.2,37.61-52.28,77.96,0,60.54,7.34,92.64c7.34,32.1,16.51,50.45,55.03,62.37,38.52,11.92,98.97,34.85,118.73,74.29,19.76,39.44,33.52,231.13,18.85,309.1s-32.1,91.72-23.85,144c8.25,52.28,11.85,101.43,32.33,118.24,20.48,16.82,71.85-4.28,93.86-19.26,22.01-14.98,109.99-128.18,149.2-277.45s48.84-149.96,66.04-194.68c17.2-44.71-24.76-256.59-48.38-324.46-35.3-101.46-77.27-122.22-106.85-124.2Z"/><path class="cls-2" d="M357.17,929.55s12.84,79.8,21.1,143.08,391.72,351.83,484.52,466.17c119.69,147.47,261.17,165.35,277.68,142.63,16.51-22.71-15.59-72.24-66.96-97.92-51.36-25.68-99.97-37.61-125.66-64.2-25.68-26.6-121.07-204.54-208.2-265.99-87.13-61.45-359.55-256.82-382.48-323.77Z"/><path class="cls-2" d="M365.5,1651.63c-.99-71.08-10.9-216.57-7.69-239.96,3.21-23.39,17.89-23.39,39.9,0,22.01,23.39,248.71,197.28,264.77,247.26s-22.27,65.2-107.57,64.28c-85.3-.92-188.48-5.55-189.4-71.59Z"/><line class="cls-9" x1="108.35" y1="1925.81" x2="2400.58" y2="1925.81"/><path class="cls-16" d="M1123.04,2135.42c48.11-5.35,297.17-27.52,393.48-13.76,96.31,13.76,88.05,74.29,15.59,140.33-72.46,66.04-106.39,111.9-128.41,121.07-22.01,9.17-66.96,27.52-132.99-35.77s-114.65-118.32-171.52-143.08c-56.87-24.76-33.94-62.37,23.85-68.79Z"/><path class="cls-16" d="M329.46,2150.51c-5.5,94.01-40.61,177.69-19.97,318.03,20.64,140.33,20.64,134.83,26.14,191.24,5.5,56.41,50.9,38.52,77.04,34.39s125.2-26.14,137.58-118.32c12.38-92.18,67.88-138.5,70.63-193.53s20.79-22.32-57.63-111.75c-78.42-89.43-27.21-127.4-96.46-141.16-69.25-13.76-137.33,21.1-137.33,21.1Z"/><path class="cls-2" d="M854.23,2349.04s116.48,26.6,166.01,92.64c49.53,66.04,144,117.4,197.2,152.25,53.2,34.85,10.09,111.9-77.96,100.89-88.05-11.01-268.74,11.92-315.52-35.77-46.78-47.69,24.76-183.44,22.01-225.63-2.75-42.19,8.25-84.38,8.25-84.38Z"/><path class="cls-2" d="M2039.7,2407.12c-63.51-115.2-84.29-246.23-84.29-246.23,0,0,13.55,166.49-119.45,284.81-132.99,118.32-282.32,215.42-282.32,215.42l406.53-81.49c78.14-15.66,118-102.71,79.53-172.51Z"/><circle class="cls-2" cx="603.32" cy="3133.49" r="214.21"/><path class="cls-16" d="M2534,2859.12v272.37c0,49.53-19.5,84.71-137.34,118.49-76.97,22.06-150.58,31.32-212.01,34.38-32.31,1.61-41.67-43.4-11.37-54.74,101.29-37.92,216.12-94.86,221.08-159.34,8.94-116.25,0-256.39,0-314.18s83.62-75.82,122.14-30.27c0,0,17.5,19.26,17.5,133.3Z"/><path class="cls-2" d="M1061.57,2917.24s60.79,42.19,69.96,146.75c9.17,104.56-3.62,177.94,124.77,177.94s404.04-37.27,604.22-153.47c190.28-110.46,279.02-293.44,279.02-293.44,0,0-222.88,157.07-531.97,166.24-309.1,9.17-545.99-44.03-545.99-44.03Z"/><image width="1650" height="663" transform="translate(2833.73 1513.31) rotate(90) scale(.5)" xlink:href="../../../logo/FormulaAI.png"/></g><g id="Details"><path class="cls-8" d="M2795.71,2888.53c-25.8-202.7-154.89-366.88-264.57-451.08,0,0,122.59,21.13,153.48,34.59,24.68,10.75,111.12,45.24,111.09,170.6-.03,126.98,0,245.89,0,245.89Z"/><path class="cls-8" d="M2795.98,961.9c-25.8,202.7-154.89,366.88-264.57,451.08,0,0,123.87-21.67,155.26-33.25,25.25-9.32,108.42-56.87,109.76-168.31,1.52-126.97-.45-249.52-.45-249.52Z"/><path class="cls-13" d="M2795.09,531.61c0-128.25-16.25-396.02-423.78-396.02"/><path class="cls-13" d="M104.04,531.61c0-128.25,16.25-396.02,423.78-396.02"/><path class="cls-13" d="M2795.09,3235.67c0,128.25-16.25,396.02-423.78,396.02"/><path class="cls-13" d="M104.04,3235.67c0,128.25,16.25,396.02,423.78,396.02"/><path class="cls-7" d="M2194.62,525.51c208.07-.8,308.84,28.83,342.57,133.91,27.97,87.13-6.19,167.24-14.45,283.26"/><path class="cls-6" d="M2194.62,525.51c208.07-.8,308.84,28.83,342.57,133.91,27.97,87.13-6.19,167.24-14.45,283.26"/><path class="cls-7" d="M2428.07,1026.74s1.61,46.7,13.26,58.51c13.98,14.16,44.41,9.78,49.34-24.8,4.83-33.9,6.76-45.59,6.76-45.59"/><path class="cls-6" d="M2428.07,1026.74s1.61,46.7,13.26,58.51c13.98,14.16,44.41,9.78,49.34-24.8,4.83-33.9,6.76-44.56,6.76-44.56"/><path class="cls-7" d="M391.51,1024.66s1.01,36.91,8.32,47.72c60.38,89.27,258.04,248.03,312.61,296.18,54.57,48.15,148.21,130.75,163.8,153.23,15.59,22.47,29.25,43.25,58.15,65.26"/><path class="cls-7" d="M939.77,805.11c109.76-9.81,303.59-13.76,327.44,18.96,0,0,41.5,33.02,14.68,88.28"/><path class="cls-6" d="M939.77,805.11c109.76-9.81,303.59-13.76,327.44,18.96,0,0,41.5,33.02,14.68,88.28"/><path class="cls-6" d="M391.51,1024.66s1.01,36.91,8.32,47.72c60.38,89.27,258.04,248.03,312.61,296.18,54.57,48.15,148.21,130.75,163.8,153.23,15.59,22.47,29.25,43.25,58.15,65.26"/><path class="cls-12" d="M2396.29,2272.37l-147.72-100.27c-30.45-20.67-50.09-66.93-50.09-117.99v-230.2c0-46.82,16.55-89.97,43.23-112.74l154.58-131.92v693.12Z"/><path class="cls-17" d="M1904.04,1716.28c122.43-36.69,187.66-149.92,258.31-294.84,62.25-127.68,264.68-211.41,320.1-293.96"/><path class="cls-17" d="M1774.73,1721.95s-81.17-49.69-116.94-58.64c-35.77-8.94-120.38-16.28-146.52-9.4"/><path class="cls-5" d="M1272.56,547.77s336.61,8.25,599.85-7.34"/><path class="cls-4" d="M1408.08,1672.48c-99,36.1-191.65,28.82-244.2,20.64"/><path class="cls-17" d="M1090.5,1697.71s-156.84,21.1-250.39,18.34-177.15,7.2-177.15,7.2"/><path class="cls-17" d="M359.72,1383.41s-15.9-257.12,0-304.51"/><path class="cls-17" d="M352.65,630.05s-19.14,203.5,0,276.42"/><path class="cls-17" d="M470.62,2112.36s139.07-3.44,280.38,0c141.3,3.44,310.56,23.39,310.56,23.39"/><path class="cls-17" d="M1591.21,2123.29s243.52,3.52,346.01,23.46"/><path class="cls-17" d="M2521.25,2703.26s4.13-35.08-49.53-88.05c-53.66-52.97-254.52-109.86-302.68-204.2-48.15-94.34-93.26-222.5-185.44-248.33"/><path class="cls-17" d="M340.46,2712.51s-13.76,284.33,20.64,404.48"/><path class="cls-17" d="M710.78,3347.71s265.07-95.43,465.94-85.34"/><path class="cls-17" d="M1515.16,3235.67s255.9-23.41,616.36,25.95"/><path class="cls-11" d="M1783.12,298.06l260.12-8.04s-28.45-30.39-163.81-44.17c-135.5-13.79-392.6-11.31-392.6-11.31h-.05s-257.1-2.47-392.6,11.31c-135.36,13.77-163.81,44.17-163.81,44.17l260.12,8.04"/><path class="cls-11" d="M1783.12,3466.22l260.12,8.04s-28.45,30.39-163.81,44.17c-135.5,13.79-392.6,11.31-392.6,11.31h-.05s-257.1,2.47-392.6-11.31c-135.36-13.77-163.81-44.17-163.81-44.17l260.12-8.04"/><path id="Road-2" class="cls-20" d="M527.81,3616.23h410.34c30.6,0,59.05,15.72,75.33,41.63l7.5,11.93c16.28,25.91,44.73,41.63,75.33,41.63h779.33c30.6,0,59.05-15.72,75.33-41.63l7.5-11.93c16.28-25.91,44.73-41.63,75.33-41.63h337.52"/><path id="Road-3" class="cls-20" d="M2371.32,152.88h-337.98c-30.64,0-59.13-15.77-75.4-41.73l-7.34-11.72c-16.27-25.97-44.75-41.73-75.4-41.73h-779.34c-30.55,0-58.97,15.68-75.26,41.52l-7.65,12.14c-16.29,25.84-44.71,41.52-75.26,41.52h-409.88"/><path class="cls-7" d="M1429.1,1235.67c-30.27,2.75-194.45,62.37-188.94,78.88,5.5,16.51,47.46,127.03,119.92,229.3"/><path class="cls-6" d="M1429.1,1235.67c-30.27,2.75-194.45,62.37-188.94,78.88,5.5,16.51,47.46,127.03,119.92,229.3"/><path class="cls-7" d="M1767.94,808.69s102.73-25.22,192.61-13.3c89.89,11.92,119.22,263.64,130.24,333.86,10.59,67.51,6.25,87.44-1.23,101.61-22.62,42.8-42.58,115.81-51.36,150.73"/><path class="cls-6" d="M1767.94,808.69s102.73-25.22,192.61-13.3c89.89,11.92,119.22,263.64,130.24,333.86,10.59,67.51,6.25,87.44-1.23,101.61-22.62,42.8-42.58,115.81-51.36,150.73"/><path class="cls-7" d="M380.43,1572.51s1.22,32.18,1.22,56.94,7.64,51.06,32.71,57.78c25.07,6.73,70.09,15.21,87.82,15.52"/><path class="cls-6" d="M380.43,1572.51s1.22,32.18,1.22,56.94,7.64,51.06,32.71,57.78c25.07,6.73,70.09,15.21,87.82,15.52"/><path class="cls-7" d="M800.13,539.13s-180.65-15-252.23-17.12c-70.04-2.07-104.25,3.36-131.46,24.46s-37.22,52.13-28.13,121.07"/><path class="cls-6" d="M798.97,539.13s-180.65-15-252.23-17.12c-70.04-2.07-104.25,3.36-131.46,24.46s-37.22,52.13-28.13,121.07"/><path class="cls-10" d="M104.04,2177.94c0-89.43,124.71-252.13,253.14-252.13"/><path class="cls-10" d="M104.04,1673.68c0,89.43,124.71,252.13,253.14,252.13"/><path class="cls-10" d="M1941.79,1925.81c69.71,0,238.28-66.88,262.99-150.89"/><path class="cls-10" d="M1937.22,1925.81c69.59,0,237.88,66.88,262.55,150.89"/><line class="cls-3" x1="352.42" y1="1903.85" x2="1947.2" y2="1903.85"/><line class="cls-3" x1="352.42" y1="1946.44" x2="1947.2" y2="1946.44"/><path class="cls-7" d="M486.39,2975.75c32.56-32.56,135.79-61.5,211-17.01s106.81,118.96,101.31,182.34c-5.5,63.37-30.27,97.68-42.65,113.27"/><path class="cls-6" d="M486.39,2975.75c32.56-32.56,135.79-61.5,211-17.01s106.81,118.96,101.31,182.34c-5.5,63.37-30.27,97.68-42.65,113.27"/><path class="cls-7" d="M324.75,2314.68c7.34-41.62,16.34-151.26,16.34-151.26,0,0,2.17.1,5.81-1.59,10.92-5.04,38.36-17.68,68.63-17.22,40.36.61,65.11-6.4,75.35,18.7,11.16,27.36,10.43,64.46,59.5,116.63"/><path class="cls-6" d="M325.32,2315.02c6.42-44.03,15.76-151.61,15.76-151.61,0,0,2.17.1,5.81-1.59,10.92-5.04,38.36-17.68,68.63-17.22,40.36.61,70.08-7.89,75.35,18.7,7.91,39.93,29.69,87.85,59.5,117.89"/><path class="cls-7" d="M1346.11,2136.82s129.94-4.36,168.92,2.52c38.98,6.88,61.06,25.26,52.89,48.61-8.56,24.46-59.31,74.22-87.75,96"/><path class="cls-6" d="M1346.11,2136.82s129.94-4.36,168.92,2.52c38.98,6.88,61.06,25.26,52.89,48.61-8.56,24.46-59.31,74.22-87.75,96"/><path class="cls-7" d="M2009.79,2384.31s15.06,28.82,20.64,42.65c5,12.39,20.18,53.96-10.09,92.03-30.27,38.06-50.89,43.51-78.65,48.15-29.27,4.89-124.2,24.54-160.43,32.1"/><path class="cls-6" d="M2009.79,2384.31s15.06,28.82,20.64,42.65c5,12.39,20.18,53.96-10.09,92.03-30.27,38.06-50.89,43.51-78.65,48.15-29.27,4.89-124.2,24.54-160.43,32.1"/><path class="cls-7" d="M843.1,2522.46c-9.78,30.27-21.34,82.45-14.68,109.89,8.1,33.32,108.23,40.2,140.33,39.9"/><path class="cls-6" d="M843.1,2522.46c-9.78,30.27-21.34,82.45-14.68,109.89,8.1,33.32,108.23,40.2,140.33,39.9"/><path class="cls-7" d="M1500.04,3196.73s-154.55,28.08-218.75,27.97c-58.24-.1-115.57,3.67-126.11-83.46-10.55-87.13-4.05-123.67-29.89-165.86"/><path class="cls-6" d="M1500.04,3196.73s-154.55,28.08-218.75,27.97c-58.24-.1-115.57,3.67-126.11-83.46-10.55-87.13-4.05-123.67-29.89-165.86"/><path class="cls-7" d="M2514.69,2929.44s.16,131.87,1.45,175.57c1.45,49.08,8.72,80-89.66,116.48-69.25,25.68-139.85,34.04-139.85,34.04"/><path class="cls-6" d="M2514.69,2929.44s.16,131.87,1.45,175.57c1.45,49.08,8.72,80-89.66,116.48-69.25,25.68-139.85,34.04-139.85,34.04"/><path class="cls-3" d="M645.88,373.43c262.25,27.17,1387.89,42.65,1651.5,0s394.31,72.92,376.42,370.09-34.39,456.02-163.72,562.33-216,159.96-269.66,260.4-114.37,247.39-298.64,255.77-950.59-16.64-1379.83,0-321.5-301.17-331.35-467.64-9.41-606.73,0-791.08,109.85-221.5,415.27-189.86Z"/><path class="cls-3" d="M570.21,2023.01c393.39,22.18,881.89,16.51,1166.68,11.01s357.14,82.55,417.96,169.22,95.21,181.69,319.47,319.23,184.36,400.77,178.85,594.53-107.88,343.72-498.32,285.94-893.98-83.92-1156.76-27.52-465.02,126.57-592.97,64.66-189.86-195.36-193.99-411.36-16.51-480.15-16.51-708.54,9.63-317.81,375.59-297.17Z"/></g></svg>